<svg width="17" height="17" viewBox="0 0 17 17" fill="none" xmlns="http://www.w3.org/2000/svg">
<path d="M3.76756 10.2732L3.17581 12.4823L1.01299 12.528C0.366629 11.3292 0 9.95751 0 8.49989C0 7.09039 0.342789 5.7612 0.950406 4.59082H0.950871L2.87639 4.94384L3.71988 6.8578C3.54334 7.37248 3.44712 7.92498 3.44712 8.49989C3.44718 9.12384 3.56021 9.72167 3.76756 10.2732Z" fill="#FBBB00"/>
<path d="M16.8521 6.91211C16.9497 7.42629 17.0006 7.95731 17.0006 8.50002C17.0006 9.10856 16.9367 9.70217 16.8148 10.2748C16.401 12.2232 15.3198 13.9246 13.822 15.1286L13.8216 15.1282L11.3963 15.0044L11.053 12.8616C12.0469 12.2788 12.8235 11.3667 13.2327 10.2748H8.6875V6.91211H13.299H16.8521Z" fill="#518EF8"/>
<path d="M13.8216 15.1282L13.822 15.1287C12.3654 16.2995 10.515 17.0001 8.50068 17.0001C5.26367 17.0001 2.44934 15.1908 1.01367 12.5283L3.76824 10.2734C4.48605 12.1892 6.33411 13.5529 8.50068 13.5529C9.43192 13.5529 10.3044 13.3012 11.053 12.8617L13.8216 15.1282Z" fill="#28B446"/>
<path d="M13.9263 1.95686L11.1727 4.21122C10.3979 3.72692 9.48199 3.44715 8.50077 3.44715C6.28516 3.44715 4.40254 4.87346 3.72068 6.85791L0.951637 4.59093H0.951172C2.36582 1.86346 5.21565 0 8.50077 0C10.5632 0 12.4542 0.734652 13.9263 1.95686Z" fill="#F14336"/>
</svg>
